<svg xmlns="http://www.w3.org/2000/svg" viewBox="0 0 46 42.5"><defs><style>.cls-1{fill:none;stroke:#cc8e29;stroke-linecap:round;stroke-linejoin:round}</style></defs><title>actor-icon</title><g id="Capa_2" data-name="Capa 2"><g id="Capa_1-2" data-name="Capa 1"><path class="cls-1" d="M44.7 12.05A26.76 26.76 0 0 0 31.49 9.6a26.76 26.76 0 0 0-12.58 4.71s-1.35 20.55 14.62 27.56a1.65 1.65 0 0 0 1.55-.14c14.52-9.67 9.62-29.68 9.62-29.68z"/><path class="cls-1" d="M25.41 26.74c.31 3.57 3.94 6.15 8.09 5.79s7.27-3.54 7-7.11"/><path class="cls-1" d="M40.46 25.42l-.55.17A33.36 33.36 0 0 1 26 26.81l-.57-.07M27.8 20a1.91 1.91 0 0 0-3.76.33m0 .03l3.76-.33m12.9-1.13a1.91 1.91 0 0 0-3.76.33m0 0l3.76-.33m-20.09 7.81a21.81 21.81 0 0 1-8.15 6.13 1.64 1.64 0 0 1-1.55-.13C-3.6 23 1.29 3 1.29 3A26.73 26.73 0 0 1 14.5.58a26.75 26.75 0 0 1 12.59 4.71 32.75 32.75 0 0 1-.2 5.2"/><path class="cls-1" d="M18.42 20.77c.1-1.15-2.35-2.29-5.46-2.57s-5.72.43-5.82 1.58m11.01-8.26c0 .33.37.63.89.68s1-.18 1-.51m-.01-.01l-1.88-.16m-11.29-.99c0 .33.37.63.89.68s1-.18 1-.51m-.01-.01l-1.88-.16m.48 3.86a.54.54 0 0 1-1.07-.09 3.57 3.57 0 0 1 .63-1 3.57 3.57 0 0 1 .44 1.09z"/></g></g></svg>