<svg xmlns="http://www.w3.org/2000/svg" viewBox="0 0 48 26.41"><defs><style>.cls-1{fill:none;stroke:#cc8e29;stroke-linecap:round;stroke-linejoin:round}</style></defs><title>producer-icon</title><g id="Capa_2" data-name="Capa 2"><g id="Capa_1-2" data-name="Capa 1"><path class="cls-1" d="M.5 15.74h33.03V25.9H.5zM47.5.5H15.74L.5 15.74h33.03L47.5.5zM33.53 25.91L47.5 10.66V.5"/><path class="cls-1" d="M25.36 19.55h4.08v2.54h-4.08zm-7.89 0h4.08v2.54h-4.08zm12.81-9.08c2.41-1.87 2.91-4.61-.16-6.14C25.59 2.06 17.85 3.89 16 7.95c-1.31 2.92 1.95 4.87 5.84 5a14 14 0 0 0 8.44-2.48z"/><path class="cls-1" d="M25.45 8.68c.56-.43.67-1.06 0-1.42-1-.52-2.83-.1-3.25.84-.3.67.45 1.12 1.35 1.15a3.24 3.24 0 0 0 1.9-.57z"/></g></g></svg>