<svg xmlns="http://www.w3.org/2000/svg" viewBox="0 0 38.93 41"><defs><style>.cls-1{fill:none;stroke:#cc8e29;stroke-linecap:round;stroke-linejoin:round}</style></defs><title>writter-icon</title><g id="Capa_2" data-name="Capa 2"><g id="Capa_1-2" data-name="Capa 1"><path class="cls-1" transform="rotate(-64 10.197 18.366)" d="M-1.97 16.15h24.33v4.42H-1.97z"/><path class="cls-1" d="M1.42 31.31l3.98 1.94-4.9 4.99.92-6.93z"/><path class="cls-1" transform="rotate(-64 17.707 2.965)" d="M16.05.75h3.32v4.42h-3.32z"/><path class="cls-1" d="M17.51 8.4l2.99 1.46-4.37 8.94m19.51 21.7l2.67-3.29a.56.56 0 0 0-.61-.88L26.87 40a.56.56 0 0 1-.64-.84l4.34-6.43a.56.56 0 0 0-.71-.81l-15.11 7.57a.56.56 0 0 1-.7-.82l9.85-13.79"/></g></g></svg>